<svg width="159" height="31" viewBox="0 0 159 31" fill="none" xmlns="http://www.w3.org/2000/svg">
<path d="M9.24 30.48C8.09333 30.48 6.96 30.3333 5.84 30.04C4.74667 29.7467 3.72 29.3333 2.76 28.8C1.82667 28.24 1.02667 27.6 0.36 26.88L3.84 23.36C4.48 24.0533 5.24 24.6 6.12 25C7 25.3733 7.96 25.56 9 25.56C9.72 25.56 10.2667 25.4533 10.64 25.24C11.04 25.0267 11.24 24.7333 11.24 24.36C11.24 23.88 11 23.52 10.52 23.28C10.0667 23.0133 9.48 22.7867 8.76 22.6C8.04 22.3867 7.28 22.16 6.48 21.92C5.68 21.68 4.92 21.3467 4.2 20.92C3.48 20.4933 2.89333 19.9067 2.44 19.16C1.98667 18.3867 1.76 17.4133 1.76 16.24C1.76 14.9867 2.08 13.9067 2.72 13C3.36 12.0667 4.26667 11.3333 5.44 10.8C6.61333 10.2667 7.98667 10 9.56 10C11.2133 10 12.7333 10.2933 14.12 10.88C15.5333 11.44 16.68 12.28 17.56 13.4L14.08 16.92C13.4667 16.2 12.7733 15.6933 12 15.4C11.2533 15.1067 10.52 14.96 9.8 14.96C9.10667 14.96 8.58667 15.0667 8.24 15.28C7.89333 15.4667 7.72 15.7467 7.72 16.12C7.72 16.52 7.94667 16.84 8.4 17.08C8.85333 17.32 9.44 17.5333 10.16 17.72C10.88 17.9067 11.64 18.1333 12.44 18.4C13.24 18.6667 14 19.0267 14.72 19.48C15.44 19.9333 16.0267 20.5467 16.48 21.32C16.9333 22.0667 17.16 23.0533 17.16 24.28C17.16 26.1733 16.44 27.68 15 28.8C13.5867 29.92 11.6667 30.48 9.24 30.48ZM29.1203 30.44C27.3336 30.44 25.747 30.08 24.3603 29.36C23.0003 28.6133 21.9336 27.6 21.1603 26.32C20.387 25.0133 20.0003 23.52 20.0003 21.84V10.56H26.1203V21.76C26.1203 22.4267 26.227 23 26.4403 23.48C26.6803 23.96 27.027 24.3333 27.4803 24.6C27.9336 24.8667 28.4803 25 29.1203 25C30.027 25 30.747 24.72 31.2803 24.16C31.8136 23.5733 32.0803 22.7733 32.0803 21.76V10.56H38.2003V21.8C38.2003 23.5067 37.8136 25.0133 37.0403 26.32C36.267 27.6 35.2003 28.6133 33.8403 29.36C32.4803 30.08 30.907 30.44 29.1203 30.44ZM53.2428 30.4C51.9361 30.4 50.7361 30.1333 49.6428 29.6C48.5495 29.04 47.6561 28.3067 46.9628 27.4C46.2695 26.4667 45.8695 25.4267 45.7628 24.28V16.08C45.8695 14.9333 46.2695 13.92 46.9628 13.04C47.6561 12.1333 48.5495 11.4267 49.6428 10.92C50.7361 10.4133 51.9361 10.16 53.2428 10.16C55.0828 10.16 56.7095 10.6 58.1228 11.48C59.5628 12.36 60.6828 13.56 61.4828 15.08C62.3095 16.6 62.7228 18.3333 62.7228 20.28C62.7228 22.2267 62.3095 23.96 61.4828 25.48C60.6828 27 59.5628 28.2 58.1228 29.08C56.7095 29.96 55.0828 30.4 53.2428 30.4ZM42.0428 30V0.96H48.1628V15.32L47.1628 20.04L48.0828 24.76V30H42.0428ZM52.1628 24.88C53.0161 24.88 53.7628 24.68 54.4028 24.28C55.0695 23.88 55.5895 23.3333 55.9628 22.64C56.3361 21.9467 56.5228 21.16 56.5228 20.28C56.5228 19.3733 56.3361 18.5733 55.9628 17.88C55.5895 17.1867 55.0695 16.6533 54.4028 16.28C53.7628 15.88 53.0161 15.68 52.1628 15.68C51.3095 15.68 50.5495 15.88 49.8828 16.28C49.2161 16.6533 48.6961 17.1867 48.3228 17.88C47.9761 18.5733 47.8028 19.3733 47.8028 20.28C47.8028 21.1867 47.9895 21.9867 48.3628 22.68C48.7361 23.3733 49.2428 23.92 49.8828 24.32C50.5495 24.6933 51.3095 24.88 52.1628 24.88ZM75.1919 30.44C73.1919 30.44 71.3785 30 69.7519 29.12C68.1519 28.2133 66.8852 26.9867 65.9519 25.44C65.0185 23.8933 64.5519 22.16 64.5519 20.24C64.5519 18.32 65.0185 16.6 65.9519 15.08C66.8852 13.56 68.1519 12.36 69.7519 11.48C71.3519 10.5733 73.1652 10.12 75.1919 10.12C77.2185 10.12 79.0319 10.56 80.6319 11.44C82.2319 12.32 83.4985 13.5333 84.4319 15.08C85.3652 16.6 85.8319 18.32 85.8319 20.24C85.8319 22.16 85.3652 23.8933 84.4319 25.44C83.4985 26.9867 82.2319 28.2133 80.6319 29.12C79.0319 30 77.2185 30.44 75.1919 30.44ZM75.1919 24.88C76.0719 24.88 76.8452 24.6933 77.5119 24.32C78.1785 23.92 78.6852 23.3733 79.0319 22.68C79.4052 21.96 79.5919 21.1467 79.5919 20.24C79.5919 19.3333 79.4052 18.5467 79.0319 17.88C78.6585 17.1867 78.1385 16.6533 77.4719 16.28C76.8319 15.88 76.0719 15.68 75.1919 15.68C74.3385 15.68 73.5785 15.88 72.9119 16.28C72.2452 16.6533 71.7252 17.1867 71.3519 17.88C70.9785 18.5733 70.7919 19.3733 70.7919 20.28C70.7919 21.16 70.9785 21.96 71.3519 22.68C71.7252 23.3733 72.2452 23.92 72.9119 24.32C73.5785 24.6933 74.3385 24.88 75.1919 24.88ZM88.8788 30V10.56H94.9988V30H88.8788ZM94.9988 19.32L92.4388 17.32C92.9454 15.0533 93.7988 13.2933 94.9988 12.04C96.1988 10.7867 97.8654 10.16 99.9988 10.16C100.932 10.16 101.745 10.3067 102.439 10.6C103.159 10.8667 103.785 11.2933 104.319 11.88L100.679 16.48C100.412 16.1867 100.079 15.96 99.6788 15.8C99.2788 15.64 98.8254 15.56 98.3188 15.56C97.3054 15.56 96.4921 15.88 95.8788 16.52C95.2921 17.1333 94.9988 18.0667 94.9988 19.32ZM118.672 30V18.92C118.672 17.9067 118.352 17.0933 117.712 16.48C117.099 15.84 116.312 15.52 115.352 15.52C114.685 15.52 114.099 15.6667 113.592 15.96C113.085 16.2267 112.685 16.6267 112.392 17.16C112.099 17.6667 111.952 18.2533 111.952 18.92L109.592 17.76C109.592 16.24 109.925 14.9067 110.592 13.76C111.259 12.6133 112.179 11.7333 113.352 11.12C114.552 10.48 115.899 10.16 117.392 10.16C118.832 10.16 120.099 10.5067 121.192 11.2C122.312 11.8667 123.192 12.76 123.832 13.88C124.472 15 124.792 16.2267 124.792 17.56V30H118.672ZM105.832 30V10.56H111.952V30H105.832ZM138.083 30.44C136.083 30.44 134.269 30 132.643 29.12C131.043 28.2133 129.776 26.9867 128.843 25.44C127.909 23.8933 127.443 22.16 127.443 20.24C127.443 18.32 127.909 16.6 128.843 15.08C129.776 13.56 131.043 12.36 132.643 11.48C134.243 10.5733 136.056 10.12 138.083 10.12C140.109 10.12 141.923 10.56 143.523 11.44C145.123 12.32 146.389 13.5333 147.323 15.08C148.256 16.6 148.723 18.32 148.723 20.24C148.723 22.16 148.256 23.8933 147.323 25.44C146.389 26.9867 145.123 28.2133 143.523 29.12C141.923 30 140.109 30.44 138.083 30.44ZM138.083 24.88C138.963 24.88 139.736 24.6933 140.403 24.32C141.069 23.92 141.576 23.3733 141.923 22.68C142.296 21.96 142.483 21.1467 142.483 20.24C142.483 19.3333 142.296 18.5467 141.923 17.88C141.549 17.1867 141.029 16.6533 140.363 16.28C139.723 15.88 138.963 15.68 138.083 15.68C137.229 15.68 136.469 15.88 135.803 16.28C135.136 16.6533 134.616 17.1867 134.243 17.88C133.869 18.5733 133.683 19.3733 133.683 20.28C133.683 21.16 133.869 21.96 134.243 22.68C134.616 23.3733 135.136 23.92 135.803 24.32C136.469 24.6933 137.229 24.88 138.083 24.88Z" fill="black"/>
<path d="M155.102 30.44C154.062 30.44 153.195 30.08 152.502 29.36C151.808 28.64 151.462 27.7733 151.462 26.76C151.462 25.6933 151.808 24.8133 152.502 24.12C153.195 23.4 154.062 23.04 155.102 23.04C156.168 23.04 157.035 23.4 157.702 24.12C158.395 24.8133 158.742 25.6933 158.742 26.76C158.742 27.7733 158.395 28.64 157.702 29.36C157.035 30.08 156.168 30.44 155.102 30.44Z" fill="#C9184A"/>
</svg>
